<svg width="73" height="60" viewBox="0 0 73 60" fill="none" xmlns="http://www.w3.org/2000/svg">
<path d="M21.0187 1.84262C21.5833 0.713339 22.7375 0 24.0001 0H44.0001C45.2627 0 46.4169 0.713339 46.9815 1.84262L50.3148 8.50929C51.1381 10.1559 50.4707 12.1581 48.8241 12.9814C47.1775 13.8047 45.1753 13.1373 44.352 11.4907L41.94 6.66667H26.0602L23.6482 11.4907C23.0835 12.62 21.9293 13.3333 20.6667 13.3333H10.6667C8.8258 13.3333 7.33342 14.8257 7.33342 16.6667V50C7.33342 51.841 8.8258 53.3333 10.6667 53.3333H57.3334C59.1744 53.3333 60.6668 51.841 60.6668 50V25C60.6668 23.159 62.1591 21.6667 64.0001 21.6667C65.841 21.6667 67.3334 23.159 67.3334 25V50C67.3334 55.5228 62.8563 60 57.3334 60H10.6667C5.1439 60 0.666748 55.5228 0.666748 50V16.6667C0.666748 11.1438 5.1439 6.66667 10.6667 6.66667H18.6066L21.0187 1.84262Z" fill="#22A958"/>
<path d="M64.0001 1.66667C64.9206 1.66667 65.6667 2.41286 65.6667 3.33333V8.33333H70.6667C71.5872 8.33333 72.3334 9.07952 72.3334 10C72.3334 10.9205 71.5872 11.6667 70.6667 11.6667H65.6667V16.6667C65.6667 17.5871 64.9206 18.3333 64.0001 18.3333C63.0796 18.3333 62.3334 17.5871 62.3334 16.6667V11.6667H57.3334C56.4129 11.6667 55.6668 10.9205 55.6668 10C55.6668 9.07952 56.4129 8.33333 57.3334 8.33333H62.3334V3.33333C62.3334 2.41286 63.0796 1.66667 64.0001 1.66667Z" fill="#22A958"/>
<path fill-rule="evenodd" clip-rule="evenodd" d="M34.0001 20C26.6363 20 20.6667 25.9695 20.6667 33.3333C20.6667 40.6971 26.6363 46.6667 34.0001 46.6667C41.3639 46.6667 47.3334 40.6971 47.3334 33.3333C47.3334 25.9695 41.3639 20 34.0001 20ZM27.3334 33.3333C27.3334 29.6514 30.3182 26.6667 34.0001 26.6667C37.682 26.6667 40.6667 29.6514 40.6667 33.3333C40.6667 37.0152 37.682 40 34.0001 40C30.3182 40 27.3334 37.0152 27.3334 33.3333Z" fill="#22A958"/>
</svg>
