<svg width="79" height="55" viewBox="0 0 79 55" fill="none" xmlns="http://www.w3.org/2000/svg">
<path d="M78.0384 18.5073L70.3531 3.78976C69.742 2.63215 68.7031 1.75884 67.4577 1.3558C66.2122 0.952763 64.8587 1.05185 63.6852 1.63195L56.4102 5.26945H51.2893L40.9777 0.603201C39.8903 0.11164 38.6629 0.0248598 37.5171 0.358514L22.3071 4.79289L15.3149 1.29695C14.1414 0.717241 12.7879 0.618364 11.5425 1.02136C10.2972 1.42436 9.25825 2.29742 8.6468 3.45476L0.961485 18.1726C0.654212 18.7612 0.467236 19.405 0.411468 20.0667C0.3557 20.7283 0.432257 21.3944 0.636671 22.0261C0.841085 22.6578 1.16926 23.2425 1.60206 23.746C2.03485 24.2495 2.56359 24.6618 3.15742 24.9588L10.6574 28.7088L27.5412 41.9113C28.0924 42.3435 28.7289 42.6543 29.4087 42.8232L47.5202 47.3513C47.9132 47.4495 48.3168 47.499 48.7218 47.4988C50.0509 47.499 51.326 46.9732 52.2687 46.0363L63.7677 34.537C63.7802 34.5248 63.7909 34.5113 63.8027 34.4991L63.8493 34.4491C63.8662 34.4304 63.8837 34.4129 63.9002 34.3938L68.5712 28.9295L75.8424 25.2938C76.4363 24.9968 76.965 24.5845 77.3978 24.0809C77.8306 23.5774 78.1588 22.9927 78.3632 22.3609C78.5676 21.7292 78.6442 21.0631 78.5884 20.4014C78.5326 19.7398 78.3456 19.0959 78.0384 18.5073ZM61.6012 29.3882L49.7202 20.7476C49.2879 20.4331 48.7661 20.2655 48.2315 20.2694C47.6969 20.2733 47.1776 20.4486 46.7499 20.7695L42.7499 23.7695C41.4492 24.7371 39.8711 25.2598 38.2499 25.2598C36.6287 25.2598 35.0507 24.7371 33.7499 23.7695L32.0562 22.4988L44.2855 10.2691H50.7368L50.7484 10.2698L50.7568 10.2691H55.4849L64.0018 26.5798L61.6012 29.3882ZM13.0793 5.76883L18.6062 8.53258L10.9209 23.2501L5.39367 20.4866L13.0793 5.76883ZM48.7331 42.5007L30.6215 37.9726L15.1793 25.8976L23.6905 9.59758L38.9168 5.15883L41.3231 6.24758C41.1202 6.39523 40.9286 6.55776 40.7499 6.73383L28.5202 18.9635C28.0137 19.4701 27.622 20.0795 27.3715 20.7507C27.1211 21.4218 27.0177 22.1389 27.0685 22.8534C27.1193 23.5679 27.323 24.2632 27.6659 24.8921C28.0088 25.5211 28.4828 26.069 29.0559 26.4988L30.7499 27.7688C32.9178 29.3818 35.5479 30.2529 38.2499 30.2529C40.952 30.2529 43.5821 29.3818 45.7499 27.7688L48.2727 25.877L58.1634 33.0701L48.7331 42.5007ZM73.6062 20.8216L68.079 23.5854L60.3937 8.86726L65.9209 6.10414L73.609 20.8201L73.6062 20.8216ZM36.9249 52.1257C36.8457 52.4444 36.7043 52.7443 36.509 53.0082C36.3137 53.2722 36.0682 53.495 35.7866 53.664C35.5051 53.8329 35.1929 53.9447 34.8681 53.9928C34.5433 54.0409 34.2121 54.0245 33.8937 53.9445L24.4749 51.5901C23.7108 51.3979 23.0025 51.0289 22.4071 50.5129L15.3599 44.387C14.8626 43.9511 14.5582 43.336 14.5133 42.6762C14.4685 42.0165 14.6869 41.3658 15.1207 40.8667C15.5545 40.3676 16.1684 40.0607 16.8279 40.0132C17.4875 39.9657 18.1391 40.1814 18.6399 40.6132L25.6877 46.7391L35.1065 49.0941C35.7496 49.2549 36.3026 49.6646 36.6436 50.2331C36.9847 50.8016 37.086 51.4822 36.9252 52.1254L36.9249 52.1257Z" fill="#22A958"/>
</svg>
