<svg width="65" height="65" viewBox="0 0 65 65" fill="none" xmlns="http://www.w3.org/2000/svg">
<path d="M30.5 4.68343C32.3409 4.68343 33.8333 6.17581 33.8333 8.01676C33.8333 9.85771 32.3409 11.3501 30.5 11.3501H10.5C9.00971 11.3501 7.16667 13.1931 7.16667 14.6834V55.3184C7.16667 56.8086 8.37479 58.0168 9.86508 58.0168H50.5C51.9903 58.0168 53.8333 56.1737 53.8333 54.6834V34.6834C53.8333 32.8425 55.3257 31.3501 57.1667 31.3501C59.0076 31.3501 60.5 32.8425 60.5 34.6834V54.6834C60.5 59.8556 55.6722 64.6834 50.5 64.6834H9.86508C4.69289 64.6834 0.5 60.4905 0.5 55.3184V14.6834C0.5 9.51124 5.32781 4.68343 10.5 4.68343H30.5ZM28.9546 40.5624L56.9525 12.5645C58.1492 11.3678 58.1492 9.42761 56.9525 8.23093C55.7558 7.03424 53.8156 7.03424 52.6189 8.23093L24.621 36.2289L23.1765 42.007L28.9546 40.5624ZM61.6665 3.51688C65.4667 7.31706 65.4667 13.4784 61.6665 17.2785L33.0158 45.9293C32.5886 46.3565 32.0533 46.6596 31.4672 46.8061L19.4037 49.822C16.9624 50.4323 14.7511 48.221 15.3614 45.7797L18.3773 33.7163C18.5238 33.1301 18.8269 32.5949 19.2541 32.1677L47.9049 3.51688C51.7051 -0.283297 57.8664 -0.283297 61.6665 3.51688Z" fill="#22A958"/>
</svg>
