<svg width="54" height="64" viewBox="0 0 54 64" fill="none" xmlns="http://www.w3.org/2000/svg">
<path d="M44.2294 6.99706L44.2215 6.99656H44.2136H9.76098C8.43326 6.99656 7.29941 7.92062 6.97205 9.15673L6.96988 9.16495L6.96827 9.1733L6.90116 9.52054L6.89815 9.53608L6.89714 9.55187L6.87177 9.94474L6.87125 9.95279V9.96085V54.039C6.87125 55.398 7.76883 56.5634 8.97611 56.8999L8.98472 56.9023L8.99348 56.9041L9.32973 56.9724L9.34601 56.9757L9.36258 56.9768L9.74408 57.0027L9.75252 57.0033H9.76098H44.2391C45.5668 57.0033 46.7007 56.0792 47.028 54.8431L47.0302 54.8349L47.0318 54.8265L47.0989 54.4793L47.1019 54.4638L47.1029 54.448L47.1283 54.0551L47.1288 54.0471V54.039V9.96085C47.1288 8.6018 46.2312 7.43641 45.024 7.09989L45.0154 7.09749L45.0066 7.09571L44.6703 7.02742L44.6535 7.02401L44.6364 7.02292L44.2294 6.99706ZM44.2391 0.583252C49.306 0.583252 53.4167 4.77985 53.4167 9.96085V54.039C53.4167 59.22 49.306 63.4166 44.2391 63.4166H9.76098C4.69413 63.4166 0.583374 59.22 0.583374 54.039V9.96085C0.583374 4.77985 4.69413 0.583252 9.76098 0.583252H44.2391ZM36.5654 42.8055C38.3004 42.8055 39.7093 44.2397 39.7093 46.0121C39.7093 47.5836 38.5932 48.9182 37.0208 49.183L36.5558 49.2188H33.4647C31.7297 49.2188 30.3207 47.7846 30.3207 46.0121C30.3207 44.4406 31.4369 43.1061 33.0093 42.8412L33.4743 42.8055H36.5654ZM36.6934 29.814C38.4284 29.814 39.8373 31.2482 39.8373 33.0207C39.8373 34.5922 38.7212 35.9267 37.1488 36.1916L36.6838 36.2273H17.3031C15.5681 36.2273 14.1591 34.7931 14.1591 33.0207C14.1591 31.4492 15.2752 30.1146 16.8477 29.8498L17.3127 29.814H36.6934ZM36.6934 16.8226C38.4284 16.8226 39.8373 18.2568 39.8373 20.0292C39.8373 21.6007 38.7212 22.9353 37.1488 23.2001L36.6838 23.2359H17.3031C15.5681 23.2359 14.1591 21.8017 14.1591 20.0292C14.1591 18.4577 15.2752 17.1232 16.8477 16.8583L17.3127 16.8226H36.6934Z" fill="#22A958" stroke="white" stroke-width="0.5"/>
</svg>
